PathFileType	4	(X/Y/Z)	C:/Users/opensim2020/Desktop/walking_exp_matlab/subject01_walking13_straight_03.trc																																																																																																																												
DataRate	CameraRate	NumFrames	NumMarkers	Units	OrigDataRate	OrigDataStartFrame	OrigNumFrames																																																																																																																								
100	100	8	42	mm	100	1711	128																																																																																																																								
Frame#	Time	LFHD			RFHD			LBHD			RBHD			C7			T10			CLAV			STRN			RBAK			LSHO			LUPA			LELB			LFRM			LWRA			LWRB			LFIN			RSHO			RUPA			RELB			RFRM			RWRA			RWRB			RFIN			LASI			RASI			LPSI			RPSI			LTHI			LKNE			LTIB			LANK			LHEE			LTOE			RTHI			RKNE			RTIB			RANK			RHEE			RTOE			*39			*40			*41		
		X1	Y1	Z1	X2	Y2	Z2	X3	Y3	Z3	X4	Y4	Z4	X5	Y5	Z5	X6	Y6	Z6	X7	Y7	Z7	X8	Y8	Z8	X9	Y9	Z9	X10	Y10	Z10	X11	Y11	Z11	X12	Y12	Z12	X13	Y13	Z13	X14	Y14	Z14	X15	Y15	Z15	X16	Y16	Z16	X17	Y17	Z17	X18	Y18	Z18	X19	Y19	Z19	X20	Y20	Z20	X21	Y21	Z21	X22	Y22	Z22	X23	Y23	Z23	X24	Y24	Z24	X25	Y25	Z25	X26	Y26	Z26	X27	Y27	Z27	X28	Y28	Z28	X29	Y29	Z29	X30	Y30	Z30	X31	Y31	Z31	X32	Y32	Z32	X33	Y33	Z33	X34	Y34	Z34	X35	Y35	Z35	X36	Y36	Z36	X37	Y37	Z37	X38	Y38	Z38	X39	Y39	Z39	X40	Y40	Z40	X41	Y41	Z41	X42	Y42	Z42
																																																																																																																															
113	1.12	627.63678	1649.28638	-1124.01611	633.51135	1653.03003	-1009.06329	508.48822	1612.9386	-1124.52771	511.80527	1615.76306	-1003.27393	457.14056	1416.89136	-1081.3645	412.84927	1123.42419	-1062.63745	598.06024	1342.21533	-1072.92883	635.74548	1187.32251	-1070.10413	391.55573	1227.16309	-997.7594	541.15204	1373.22559	-1236.51147	470.58673	1198.51709	-1315.34033	422.59369	1057.49854	-1311.3728	425.23166	943.43353	-1333.18604	460.9184	808.46649	-1310.09998	408.46988	821.98401	-1336.19763	429.4563	740.65588	-1345.16882	529.6792	1377.73169	-925.87872	470.12421	1191.65601	-807.67023	478.76974	1065.2832	-783.86932	568.94092	975.56207	-771.96735	690.67719	930.26691	-820.40448	666.39154	902.66394	-776.27722	744.00262	883.84796	-780.33319	602.26233	921.58917	-1153.55249	576.83026	914.82532	-936.55066	411.24692	927.27777	-1127.90112	395.84241	934.77606	-985.31464	660.36938	609.57019	-1219.63025	688.62524	480.20926	-1206.06689	684.4491	293.12582	-1218.50818	720.08301	73.85314	-1182.54834	677.62354	41.52662	-1132.25488	867.53931	54.03429	-1172.62646	455.90497	590.00238	-898.30408	422.32898	430.771	-925.39154	289.27344	311.81387	-929.77631	165.47594	145.78799	-982.72717	107.26265	145.85814	-1033.57532	257.80695	35.84164	-1003.63446	625.50171	1686.9917	-1032.62915	1973.12244	1023.63123	-3101.90137	2012.56494	1022.15302	-3140.73438
114	1.13	640.66724	1649.91394	-1125.34082	645.86774	1653.58154	-1010.44574	521.53052	1613.55164	-1126.63354	524.27686	1616.3446	-1005.22205	470.36844	1417.21729	-1083.57483	426.29752	1123.66711	-1063.62183	610.98987	1342.72192	-1074.28516	649.2121	1187.95825	-1071.10669	404.56039	1227.0658	-1000.05896	554.54523	1372.68689	-1238.22424	485.51474	1197.26892	-1316.83398	438.56879	1055.73022	-1313.0249	442.19821	941.61932	-1334.62683	478.81573	807.10193	-1310.89856	426.40802	820.07819	-1337.39917	448.26572	739.07983	-1346.03076	542.1593	1378.10132	-927.21918	481.24759	1191.73364	-809.72186	489.50742	1065.17993	-785.93707	578.9632	974.57721	-773.32281	700.39978	928.07642	-821.10699	675.37714	900.51984	-777.3501	752.45538	880.67639	-781.32635	615.98566	921.70044	-1154.28333	591.00031	914.70215	-937.60077	424.93784	927.98602	-1128.33105	409.79984	934.05096	-985.35059	672.46216	610.98596	-1222.11072	703.07922	482.58884	-1205.22437	698.2536	295.31174	-1220.33643	723.12207	74.26302	-1182.78259	679.31537	42.48337	-1132.4093	869.6369	49.32833	-1173.70093	473.77393	588.33087	-898.33246	441.45981	429.31995	-923.58331	304.19739	314.95483	-929.15094	175.33791	153.11133	-982.11133	118.91702	156.14461	-1033.88062	259.28882	35.8602	-1003.78943	637.78174	1687.66138	-1034.12256	1973.17651	1023.26837	-3101.84961	2012.52319	1022.02161	-3140.67505
115	1.14	653.71808	1650.47546	-1126.66968	658.28516	1654.24646	-1011.79706	534.61963	1614.20251	-1128.60413	536.65802	1617.04382	-1007.17017	483.65714	1417.79578	-1085.47095	439.62497	1124.11462	-1064.521	623.98114	1343.44324	-1075.50085	662.61755	1188.76868	-1072.0365	417.55795	1227.26733	-1002.04926	567.86761	1372.43042	-1239.66748	500.75113	1196.33044	-1318.27258	454.96442	1054.20923	-1314.68823	459.76758	940.03766	-1335.9762	497.43271	806.00244	-1311.72241	445.11649	818.40143	-1338.62854	467.96231	737.87213	-1347.15405	554.47498	1378.62683	-928.57904	492.16321	1192.14514	-811.93719	500.18088	1065.49902	-788.22607	588.34967	973.72217	-774.94946	709.21436	925.37482	-822.21069	683.88977	898.23834	-778.46649	760.52301	877.38342	-781.98981	629.44995	922.21387	-1155.04749	605.26068	914.9325	-938.80804	438.397	928.91785	-1128.38379	423.72699	933.42474	-985.14917	682.91241	611.2879	-1223.09509	716.7843	484.97778	-1204.18445	710.80725	296.87256	-1222.36377	724.67889	75.01855	-1182.1759	680.44446	43.13418	-1132.38123	871.216	46.73072	-1175.44653	492.46362	586.92981	-897.901	461.96451	427.87595	-921.01697	321.01279	317.84485	-928.63043	187.57953	160.3419	-981.61237	133.3127	166.6911	-1034.76172	261.17511	35.87783	-1004.19153	650.43579	1688.49927	-1035.37952	1973.15869	1023.34363	-3101.92651	2012.41687	1021.95209	-3140.66357
116	1.15	666.66052	1651.11243	-1128.09314	670.70978	1655.10693	-1013.1712	547.63269	1614.78503	-1130.5321	549.0791	1617.83191	-1009.13452	496.83423	1418.46326	-1086.97803	452.72775	1124.75024	-1065.41614	636.9682	1344.23608	-1076.58093	675.85516	1189.66956	-1072.8103	430.4007	1227.80139	-1003.73273	581.1441	1372.44861	-1240.94055	516.14893	1195.72949	-1319.61438	471.65491	1053.04504	-1316.21326	477.93716	938.91504	-1337.33313	516.84003	805.34454	-1312.60242	464.69751	817.14838	-1340.07166	488.50311	736.76324	-1348.01892	567.01337	1379.39929	-929.89441	502.87714	1192.75647	-814.27026	510.63715	1066.24731	-790.56714	597.3493	973.01721	-776.91931	717.86792	922.73334	-822.92816	691.65906	895.841	-779.62982	768.01019	873.64551	-782.59039	642.63153	923.26318	-1155.78516	618.12799	914.93195	-939.97058	451.33356	930.008	-1128.35291	437.15045	933.20752	-984.78943	694.91559	612.27576	-1223.30115	729.39746	486.15176	-1203.53772	720.63513	296.92957	-1224.44958	726.2019	75.17791	-1181.50378	681.39191	43.41093	-1132.14014	873.37451	45.1722	-1174.96033	511.38879	585.7312	-896.94885	483.19769	426.36765	-918.58411	339.40451	320.91052	-927.45728	201.76616	166.95993	-980.91345	150.10837	177.17506	-1035.65686	263.24356	35.84081	-1005.05701	663.31885	1689.4071	-1037.14587	1973.2334	1023.40118	-3101.87231	2012.54272	1022.15546	-3140.80347
117	1.16	679.521	1651.75464	-1129.4198	683.04028	1656.06641	-1014.47601	560.56903	1615.30505	-1132.25635	561.39905	1618.61951	-1010.92499	509.65598	1419.03711	-1088.43689	465.61716	1125.53943	-1066.1615	649.92706	1345.09192	-1077.46667	688.91144	1190.55847	-1073.32849	443.18658	1228.47742	-1005.02661	594.38281	1372.6842	-1242.07703	531.63892	1195.44714	-1320.78821	488.5015	1052.1311	-1317.63	496.57245	938.17291	-1338.69153	536.94995	805.10474	-1313.50403	484.94653	816.19977	-1341.54749	509.78912	736.04291	-1349.04883	579.36963	1380.3584	-931.06836	513.36591	1193.52771	-816.62573	520.93549	1067.18274	-792.96643	606.20563	972.59979	-778.49335	725.75525	919.69659	-823.96088	699.27173	893.64453	-780.29675	774.91882	869.86243	-782.94653	655.41376	924.75513	-1156.6239	631.2124	915.28754	-941.21307	463.9631	931.16217	-1128.11816	450.34302	933.04999	-984.44824	708.04919	613.46277	-1223.31396	740.55609	485.89496	-1203.58997	727.74512	295.76303	-1225.96838	728.0719	75.00545	-1181.05627	681.7547	43.94528	-1132.33936	875.08447	43.85432	-1173.5979	530.77411	584.60291	-895.81714	504.98044	425.26224	-916.25793	358.56021	323.61081	-926.42993	217.76331	173.12697	-979.55377	168.60153	187.41951	-1035.60046	265.27048	35.75108	-1006.58997	675.79358	1690.13708	-1037.83875	1973.14661	1023.48376	-3101.87866	2012.60754	1022.14813	-3140.62061
118	1.17	692.32532	1652.36682	-1130.72876	695.32379	1657.03174	-1015.74982	573.42151	1615.81018	-1134.02881	573.74084	1619.48804	-1012.60809	522.20837	1419.62891	-1089.61377	478.43295	1126.34521	-1066.8291	662.74811	1345.97327	-1078.08459	701.67932	1191.40002	-1073.5979	455.73553	1229.33167	-1006.08722	607.75745	1373.14294	-1242.8479	547.2301	1195.44592	-1321.79614	505.56982	1051.53821	-1319.18652	515.60492	937.71033	-1340.07227	557.67303	805.27454	-1314.38403	505.806	815.56207	-1343.00183	531.89313	735.72955	-1350.10022	591.66174	1381.45923	-931.91266	523.93091	1194.39734	-818.75372	530.86432	1068.1687	-795.34283	614.51605	972.16388	-780.28705	733.2594	916.57715	-824.78748	705.95746	890.81903	-781.43494	781.0127	865.74066	-783.48309	667.91925	926.38409	-1157.67603	643.28833	915.35663	-942.97144	476.41153	932.43848	-1127.9834	463.13943	932.91345	-984.22687	720.57843	614.41907	-1223.50854	750.25287	484.51443	-1204.22253	733.27234	294.49655	-1226.09314	729.27643	74.96632	-1180.53821	682.16119	44.08014	-1132.19946	876.16302	42.88121	-1174.01782	550.17651	583.25293	-894.90814	527.69568	424.42706	-914.30194	378.85477	326.3866	-925.24298	234.33957	179.04581	-978.37244	186.97884	197.85611	-1034.36108	270.23386	39.04224	-1007.59412	688.17523	1690.96472	-1039.86707	1973.11609	1023.40936	-3101.89185	2012.58569	1022.14294	-3140.6604
119	1.18	705.12164	1652.97009	-1131.88367	707.5683	1658.04553	-1016.91687	586.17242	1616.19824	-1135.53784	586.03107	1620.43335	-1014.14337	534.73645	1420.27869	-1090.6001	491.01727	1127.19702	-1067.48071	675.46283	1346.8811	-1078.5415	714.16016	1192.22986	-1073.60095	468.01126	1230.43762	-1006.86145	621.1499	1373.83655	-1243.43994	562.91351	1195.63013	-1322.48132	522.87469	1051.27258	-1320.7019	534.93823	937.49707	-1341.44263	578.90961	805.79553	-1315.23291	527.25134	815.25342	-1344.41809	554.73096	735.81152	-1351.20056	603.9939	1382.60254	-932.74078	534.37085	1195.35095	-820.72089	540.66125	1069.23254	-797.73547	622.28564	971.57928	-782.09131	740.25049	913.30347	-825.44501	712.21954	888.45331	-781.99097	786.57666	861.34076	-783.52252	680.15558	927.91705	-1158.83997	655.64899	915.98163	-944.0885	488.70386	933.69238	-1127.93457	475.56516	932.81769	-984.28638	731.92377	614.51715	-1223.84521	758.38458	482.92966	-1205.35608	737.6842	293.67203	-1226.00854	729.53479	74.82824	-1180.40637	682.38281	44.3679	-1132.14478	877.08032	42.20464	-1174.48364	569.97614	582.16284	-894.08496	550.81116	423.21582	-912.94922	400.14868	329.11963	-923.93286	251.59106	186.69518	-977.31909	205.77444	209.58643	-1032.49304	278.16953	44.8251	-1007.39087	700.43671	1691.84338	-1041.40649	1973.18506	1023.50403	-3101.80908	2012.58252	1022.15894	-3140.80688
120	1.19	717.8924	1653.65271	-1132.92676	719.9549	1659.20496	-1018.00812	599.06293	1616.8606	-1136.84912	598.38629	1621.5022	-1015.52521	547.23505	1421.25867	-1091.47705	503.41403	1128.18103	-1068.28394	688.04425	1347.79102	-1078.70703	726.47723	1193.05579	-1073.4729	480.11792	1231.69714	-1007.36053	634.51556	1374.6499	-1243.81079	578.59442	1196.05652	-1323.20544	540.33044	1051.14954	-1322.22571	554.51007	937.49847	-1342.79651	600.67535	806.64996	-1316.05103	549.16357	815.14349	-1345.72742	578.32263	736.29254	-1352.20288	615.9046	1383.79663	-933.2962	544.86963	1196.35864	-822.32422	550.08203	1070.24475	-800.08527	629.80334	970.88141	-783.646	746.89636	909.94891	-826.08026	718.02826	885.75842	-782.76508	791.68744	856.96033	-784.14557	692.1098	929.3869	-1159.90649	667.84601	917.0058	-944.93347	500.84116	934.9151	-1128.08142	487.66623	932.60071	-984.35559	741.46729	613.98853	-1224.55713	765.33545	481.72568	-1206.68787	741.03833	293.31613	-1225.89673	729.90155	74.82485	-1180.19714	682.49969	44.50698	-1132.07971	877.74811	41.48315	-1174.23413	589.93726	580.99536	-893.51776	574.91559	422.48859	-911.77881	422.14612	331.67429	-922.14844	269.9393	195.24971	-977.49579	224.91747	220.92091	-1031.57227	289.15424	52.27062	-1005.89703	712.78864	1692.94836	-1042.77124	1973.17285	1023.51477	-3102.07788	2012.48486	1022.01807	-3140.55396
